<svg id="Layer_1" data-name="Layer 1" xmlns="http://www.w3.org/2000/svg" viewBox="0 0 850.39 850.39"><defs><style>.cls-1{fill:#231f20;fill-rule:evenodd;}</style></defs><title>shokovica_logo_final</title><path class="cls-1" d="M383.15,395.85l-3.8-3.8v3.8ZM374.45,291a2.45,2.45,0,0,1,4.9,0v30.6l32.27-32.27a2.35,2.35,0,0,1,1.73-.73l0,0a2.35,2.35,0,0,1,1.73.72L447.4,321.5V291a2.45,2.45,0,0,1,4.9,0V326.4L480.92,355a2.41,2.41,0,0,1,0,3.45L452.3,387.1v11.2a2.47,2.47,0,0,1-2.45,2.45h-11.2l-23.58,23.58a2.42,2.42,0,0,1-3.45,0L388,400.75H376.9a2.47,2.47,0,0,1-2.45-2.45V387.15l-28.62-28.62a2.41,2.41,0,0,1,0-3.45l28.62-28.62ZM390,395.85H410.9V296.9l-31.55,31.55v56.7ZM447.4,392l-3.85,3.85h3.85Zm28.35-35.25L452.3,333.3v46.9Zm-44,44H395l18.4,18.4Zm-57.3-20.5v-46.9L351,356.8Zm41.35,15.6h20.85L447.4,385.1V328.4l-31.6-31.6Z"/><path class="cls-1" d="M154.38,437.67a2.35,2.35,0,0,1,.73,1.73V544.3h31.55V439.4a2.45,2.45,0,0,1,4.9,0V544.3h31.6V439.4a2.45,2.45,0,0,1,4.9,0V546.75a2.48,2.48,0,0,1-2.45,2.45h-73a2.48,2.48,0,0,1-2.45-2.45V439.4a2.44,2.44,0,0,1,4.17-1.73Z"/><path class="cls-1" d="M273,478,240.85,510l32,32L305,510Zm0-5.9a2.37,2.37,0,0,1,1.72.73l35.5,35.5a2.41,2.41,0,0,1,0,3.45l-35.55,35.55a2.42,2.42,0,0,1-3.45,0l-35.5-35.5a2.42,2.42,0,0,1,0-3.45l35.55-35.55A2.36,2.36,0,0,1,273,472Z"/><path class="cls-1" d="M322.75,505.75l33-33a2.44,2.44,0,1,1,3.45,3.45l-34,34.05,34,34.1a2.44,2.44,0,1,1-3.45,3.45l-33-33v31.7a2.45,2.45,0,0,1-4.9,0v-72a2.45,2.45,0,0,1,4.9,0Z"/><path class="cls-1" d="M428.55,510l-32-32.1L364.4,510l32.05,32.1Zm-69.32,1.73a2.41,2.41,0,0,1,0-3.45l35.55-35.55a2.41,2.41,0,0,1,3.45,0l35.5,35.55a2.41,2.41,0,0,1,0,3.45l-35.55,35.55a2.42,2.42,0,0,1-3.45,0Z"/><path class="cls-1" d="M475.7,511l-29.35-29.17V540.4ZM457,457.67l-10.45-10.5-.15,20.92Zm-15.32-16.4a2.37,2.37,0,0,1,.72-1.73,2.34,2.34,0,0,1,1.72-.7,2.38,2.38,0,0,1,1.73.73L462.17,456a2.34,2.34,0,0,1,.73,1.73,2.4,2.4,0,0,1-.73,1.75L446.38,475l34.5,34.33a2.42,2.42,0,0,1,0,3.45l-35,35a2.42,2.42,0,0,1-3.45,0,2.73,2.73,0,0,1-.3-.35,2.36,2.36,0,0,1-.62-1.62V474a4,4,0,0,1,0-.45,3.75,3.75,0,0,1,0-.47Z"/><path class="cls-1" d="M488.7,474.55a2.45,2.45,0,0,1,4.9,0V541.8l43.1-30.52V474.65a2.45,2.45,0,0,1,4.9,0v72a2.45,2.45,0,0,1-4.9,0V517.3l-44.12,31.25a2.39,2.39,0,0,1-1.7.42,2.45,2.45,0,0,1-2.17-2.42Z"/><path class="cls-1" d="M555.42,472.83a2.35,2.35,0,0,1,.73,1.72v67.2L599.1,511.3V474.6a2.45,2.45,0,0,1,4.9,0v70.05h10.5A2.48,2.48,0,0,1,617,547.1V560a2.45,2.45,0,0,1-4.9,0v-10.4h-10.4a2.49,2.49,0,0,1-2.45-2.27,2.66,2.66,0,0,1-.1-.73V517.33l-44,31.17a2.48,2.48,0,0,1-3.25-.37,2.36,2.36,0,0,1-.62-1.62v-72a2.44,2.44,0,0,1,4.17-1.72Z"/><path class="cls-1" d="M661.7,480.08,647.38,509H676Zm-2.2-6.62a2.38,2.38,0,0,1,1.33-1.17,2.3,2.3,0,0,1,1.75,0,2.43,2.43,0,0,1,1.33,1.2l35.55,71.85a2.31,2.31,0,0,1,.13,1.85,2.42,2.42,0,0,1-1.25,1.42,2.3,2.3,0,0,1-1.85.13,2.43,2.43,0,0,1-1.42-1.25l-16.6-33.57H645l-16.6,33.55a2.39,2.39,0,0,1-1.42,1.22,2.3,2.3,0,0,1-1.85-.12,2.42,2.42,0,0,1-1.25-1.42,2.36,2.36,0,0,1,.13-1.87Z"/></svg>