<?xml version="1.0" encoding="UTF-8" standalone="no"?>
<svg
   xmlns:osb="http://www.openswatchbook.org/uri/2009/osb"
   xmlns:dc="http://purl.org/dc/elements/1.1/"
   xmlns:cc="http://creativecommons.org/ns#"
   xmlns:rdf="http://www.w3.org/1999/02/22-rdf-syntax-ns#"
   xmlns:svg="http://www.w3.org/2000/svg"
   xmlns="http://www.w3.org/2000/svg"
   xmlns:sodipodi="http://sodipodi.sourceforge.net/DTD/sodipodi-0.dtd"
   xmlns:inkscape="http://www.inkscape.org/namespaces/inkscape"
   id="Layer_1"
   data-name="Layer 1"
   viewBox="0 0 570.56444 284.89999"
   version="1.1"
   sodipodi:docname="header-logo-sm.svg"
   inkscape:version="0.92.3 (2405546, 2018-03-11)"
   width="570.56445"
   height="284.89999">
  <metadata
     id="metadata3769">
    <rdf:RDF>
      <cc:Work
         rdf:about="">
        <dc:format>image/svg+xml</dc:format>
        <dc:type
           rdf:resource="http://purl.org/dc/dcmitype/StillImage" />
        <dc:title>shokovica_logo_final</dc:title>
      </cc:Work>
    </rdf:RDF>
  </metadata>
  <sodipodi:namedview
     pagecolor="#ffffff"
     bordercolor="#666666"
     borderopacity="1"
     objecttolerance="10"
     gridtolerance="10"
     guidetolerance="10"
     inkscape:pageopacity="0"
     inkscape:pageshadow="2"
     inkscape:window-width="1920"
     inkscape:window-height="1017"
     id="namedview3767"
     showgrid="false"
     inkscape:zoom="0.99954137"
     inkscape:cx="267.66979"
     inkscape:cy="147.75501"
     inkscape:window-x="-8"
     inkscape:window-y="-8"
     inkscape:window-maximized="1"
     inkscape:current-layer="Layer_1"
     fit-margin-top="10"
     fit-margin-left="10"
     fit-margin-right="10"
     fit-margin-bottom="10" />
  <defs
     id="defs3744">
    <linearGradient
       id="linearGradient4584"
       osb:paint="solid">
      <stop
         style="stop-color:#231f20;stop-opacity:1;"
         offset="0"
         id="stop4582" />
    </linearGradient>
    <style
       id="style3742">.cls-1{fill:#231f20;fill-rule:evenodd;}</style>
  </defs>
  <title
     id="title3746">shokovica_logo_final</title>
  <path
     class="cls-1"
     d="m 243.49002,117.8 -3.8,-3.8 v 3.8 z m -8.7,-104.850001 a 2.45,2.45 0 0 1 4.9,0 v 30.6 l 32.27,-32.27 a 2.35,2.35 0 0 1 1.73,-0.73 v 0 a 2.35,2.35 0 0 1 1.73,0.72 l 32.32,32.18 v -30.5 a 2.45,2.45 0 0 1 4.9,0 v 35.4 l 28.62,28.6 a 2.41,2.41 0 0 1 0,3.45 l -28.62,28.650001 v 11.2 a 2.47,2.47 0 0 1 -2.45,2.45 h -11.2 l -23.58,23.58 a 2.42,2.42 0 0 1 -3.45,0 l -23.62,-23.58 h -11.1 a 2.47,2.47 0 0 1 -2.45,-2.45 V 109.1 l -28.62,-28.620001 a 2.41,2.41 0 0 1 0,-3.45 l 28.62,-28.62 z M 250.34002,117.8 h 20.9 V 18.849999 l -31.55,31.55 V 107.1 Z m 57.4,-3.85 -3.85,3.85 h 3.85 z m 28.35,-35.250001 -23.45,-23.45 V 102.15 Z m -44,44.000001 h -36.75 l 18.4,18.4 z m -57.3,-20.5 V 55.299999 l -23.45,23.45 z m 41.35,15.6 h 20.85 l 10.75,-10.75 V 50.349999 l -31.6,-31.6 z"
     id="path3748"
     style="opacity:1;fill:#ffffff;fill-opacity:1;fill-rule:evenodd;stroke:#808080;stroke-opacity:1"
     inkscape:connector-curvature="0" />
  <path
     class="cls-1"
     d="m 14.720019,149.62 a 2.35,2.35 0 0 1 0.73,1.73 v 104.9 h 31.55 v -104.9 a 2.45,2.45 0 0 1 4.9,0 v 104.9 h 31.6 v -104.9 a 2.45,2.45 0 0 1 4.9,0 V 258.7 a 2.48,2.48 0 0 1 -2.45,2.45 h -73 a 2.48,2.48 0 0 1 -2.45,-2.45 V 151.35 a 2.44,2.44 0 0 1 4.17,-1.73 z"
     id="path3750"
     style="opacity:1;fill:#ffffff;fill-opacity:1;fill-rule:evenodd;stroke:#808080;stroke-width:1;stroke-miterlimit:4;stroke-dasharray:none;stroke-opacity:1"
     inkscape:connector-curvature="0" />
  <path
     class="cls-1"
     d="m 133.34002,189.95 -32.15,32 32,32 32.15,-32 z m 0,-5.9 a 2.37,2.37 0 0 1 1.72,0.73 l 35.5,35.5 a 2.41,2.41 0 0 1 0,3.45 l -35.55,35.55 a 2.42,2.42 0 0 1 -3.45,0 l -35.500001,-35.5 a 2.42,2.42 0 0 1 0,-3.45 l 35.550001,-35.55 a 2.36,2.36 0 0 1 1.73,-0.83 z"
     id="path3752"
     style="opacity:1;fill:#ffffff;fill-opacity:1;fill-rule:evenodd;stroke:#808080;stroke-opacity:1"
     inkscape:connector-curvature="0" />
  <path
     class="cls-1"
     d="m 183.09002,217.7 33,-33 a 2.44,2.44 0 1 1 3.45,3.45 l -34,34.05 34,34.1 a 2.44,2.44 0 1 1 -3.45,3.45 l -33,-33 v 31.7 a 2.45,2.45 0 0 1 -4.9,0 v -72 a 2.45,2.45 0 0 1 4.9,0 z"
     id="path3754"
     style="opacity:1;fill:#ffffff;fill-opacity:1;fill-rule:evenodd;stroke:#808080;stroke-opacity:1"
     inkscape:connector-curvature="0" />
  <path
     class="cls-1"
     d="m 288.89002,221.95 -32,-32.1 -32.15,32.1 32.05,32.1 z m -69.32,1.73 a 2.41,2.41 0 0 1 0,-3.45 l 35.55,-35.55 a 2.41,2.41 0 0 1 3.45,0 l 35.5,35.55 a 2.41,2.41 0 0 1 0,3.45 l -35.55,35.55 a 2.42,2.42 0 0 1 -3.45,0 z"
     id="path3756"
     style="opacity:1;fill:#ffffff;fill-opacity:1;fill-rule:evenodd;stroke:#808080;stroke-opacity:1"
     inkscape:connector-curvature="0" />
  <path
     class="cls-1"
     d="m 336.04002,222.95 -29.35,-29.17 v 58.57 z m -18.7,-53.33 -10.45,-10.5 -0.15,20.92 z m -15.32,-16.4 a 2.37,2.37 0 0 1 0.72,-1.73 2.34,2.34 0 0 1 1.72,-0.7 2.38,2.38 0 0 1 1.73,0.73 l 16.32,16.43 a 2.34,2.34 0 0 1 0.73,1.73 2.4,2.4 0 0 1 -0.73,1.75 l -15.79,15.52 34.5,34.33 a 2.42,2.42 0 0 1 0,3.45 l -35,35 a 2.42,2.42 0 0 1 -3.45,0 2.73,2.73 0 0 1 -0.3,-0.35 2.36,2.36 0 0 1 -0.62,-1.62 v -71.81 a 4,4 0 0 1 0,-0.45 3.75,3.75 0 0 1 0,-0.47 z"
     id="path3758"
     style="opacity:1;fill:#ffffff;fill-opacity:1;fill-rule:evenodd;stroke:#808080;stroke-opacity:1"
     inkscape:connector-curvature="0" />
  <path
     class="cls-1"
     d="m 349.04002,186.5 a 2.45,2.45 0 0 1 4.9,0 v 67.25 l 43.1,-30.52 V 186.6 a 2.45,2.45 0 0 1 4.9,0 v 72 a 2.45,2.45 0 0 1 -4.9,0 v -29.35 l -44.12,31.25 a 2.39,2.39 0 0 1 -1.7,0.42 2.45,2.45 0 0 1 -2.17,-2.42 z"
     id="path3760"
     style="opacity:1;fill:#ffffff;fill-opacity:1;fill-rule:evenodd;stroke:#808080;stroke-opacity:1"
     inkscape:connector-curvature="0" />
  <path
     class="cls-1"
     d="m 415.76002,184.78 a 2.35,2.35 0 0 1 0.73,1.72 v 67.2 l 42.95,-30.45 v -36.7 a 2.45,2.45 0 0 1 4.9,0 v 70.05 h 10.5 a 2.48,2.48 0 0 1 2.5,2.45 v 12.9 a 2.45,2.45 0 0 1 -4.9,0 v -10.4 h -10.4 a 2.49,2.49 0 0 1 -2.45,-2.27 2.66,2.66 0 0 1 -0.1,-0.73 v -29.27 l -44,31.17 a 2.48,2.48 0 0 1 -3.25,-0.37 2.36,2.36 0 0 1 -0.62,-1.62 v -72 a 2.44,2.44 0 0 1 4.17,-1.72 z"
     id="path3762"
     style="opacity:1;fill:#ffffff;fill-opacity:1;fill-rule:evenodd;stroke:#808080;stroke-opacity:1"
     inkscape:connector-curvature="0" />
  <path
     class="cls-1"
     d="m 522.04002,192.03 -14.32,28.92 h 28.62 z m -2.2,-6.62 a 2.38,2.38 0 0 1 1.33,-1.17 2.3,2.3 0 0 1 1.75,0 2.43,2.43 0 0 1 1.33,1.2 l 35.55,71.85 a 2.31,2.31 0 0 1 0.13,1.85 2.42,2.42 0 0 1 -1.25,1.42 2.3,2.3 0 0 1 -1.85,0.13 2.43,2.43 0 0 1 -1.42,-1.25 l -16.6,-33.57 h -33.47 l -16.6,33.55 a 2.39,2.39 0 0 1 -1.42,1.22 2.3,2.3 0 0 1 -1.85,-0.12 2.42,2.42 0 0 1 -1.25,-1.42 2.36,2.36 0 0 1 0.13,-1.87 z"
     id="path3764"
     style="opacity:1;fill:#ffffff;fill-opacity:1;fill-rule:evenodd;stroke:#808080;stroke-opacity:1"
     inkscape:connector-curvature="0" />
</svg>
