<?xml version="1.0" encoding="UTF-8" standalone="no"?>
<!-- Generator: Adobe Illustrator 16.0.0, SVG Export Plug-In . SVG Version: 6.00 Build 0)  -->

<svg
   xmlns:dc="http://purl.org/dc/elements/1.1/"
   xmlns:cc="http://creativecommons.org/ns#"
   xmlns:rdf="http://www.w3.org/1999/02/22-rdf-syntax-ns#"
   xmlns:svg="http://www.w3.org/2000/svg"
   xmlns="http://www.w3.org/2000/svg"
   xmlns:xlink="http://www.w3.org/1999/xlink"
   xmlns:sodipodi="http://sodipodi.sourceforge.net/DTD/sodipodi-0.dtd"
   xmlns:inkscape="http://www.inkscape.org/namespaces/inkscape"
   version="1.1"
   id="Capa_1"
   x="0px"
   y="0px"
   width="542.662px"
   height="542.662px"
   viewBox="0 0 542.662 542.662"
   style="enable-background:new 0 0 542.662 542.662;"
   xml:space="preserve"
   sodipodi:docname="two-round-overlapping-speech-bubbles-svgrepo-com.svg"
   inkscape:version="0.92.3 (2405546, 2018-03-11)"><metadata
   id="metadata41"><rdf:RDF><cc:Work
       rdf:about=""><dc:format>image/svg+xml</dc:format><dc:type
         rdf:resource="http://purl.org/dc/dcmitype/StillImage" /></cc:Work></rdf:RDF></metadata><defs
   id="defs39"><linearGradient
     inkscape:collect="always"
     id="linearGradient852"><stop
       style="stop-color:#ffffff;stop-opacity:1;"
       offset="0"
       id="stop848" /><stop
       style="stop-color:#ffffff;stop-opacity:0;"
       offset="1"
       id="stop850" /></linearGradient><linearGradient
     inkscape:collect="always"
     xlink:href="#linearGradient852"
     id="linearGradient854"
     x1="0"
     y1="271.332"
     x2="542.662"
     y2="271.332"
     gradientUnits="userSpaceOnUse" /></defs><sodipodi:namedview
   pagecolor="#ffffff"
   bordercolor="#666666"
   borderopacity="1"
   objecttolerance="10"
   gridtolerance="10"
   guidetolerance="10"
   inkscape:pageopacity="0"
   inkscape:pageshadow="2"
   inkscape:window-width="1920"
   inkscape:window-height="1017"
   id="namedview37"
   showgrid="false"
   inkscape:zoom="0.43489318"
   inkscape:cx="271.33099"
   inkscape:cy="271.33099"
   inkscape:window-x="-8"
   inkscape:window-y="-8"
   inkscape:window-maximized="1"
   inkscape:current-layer="Capa_1" />
<g
   id="g4"
   style="fill:#ffffff;fill-opacity:1;stroke:#999999;stroke-opacity:1">
	<path
   style="fill:#ffffff;fill-opacity:1;stroke:#999999;stroke-opacity:1"
   d="m 363.168,74.051 c -18.537,0 -36.429,2.368 -53.263,6.759 C 281.875,69.8 250.606,63.611 217.622,63.611 97.627,63.61 0,145.123 0,245.312 0,298.455 27.281,348.139 75.141,382.699 v 96.354 l 99.845,-55.573 c 14.104,2.345 28.421,3.54 42.63,3.54 59.479,0 113.439,-20.042 152.763,-52.445 8.983,-0.304 17.994,-1.161 26.909,-2.607 l 84.34,46.938 V 337.379 C 520.534,308.823 542.662,268.031 542.662,224.385 542.674,141.492 462.142,74.051 363.168,74.051 Z M 217.622,397.736 c -14.181,0 -28.484,-1.338 -42.508,-3.968 l -5.2,-0.973 -65.497,36.452 v -62.022 l -6.504,-4.346 C 54.296,333.729 29.277,290.871 29.277,245.311 c 0,-84.046 84.492,-152.425 188.346,-152.425 16.76,0 32.996,1.804 48.472,5.143 -49.541,26.786 -82.437,73.399 -82.437,126.354 0,71.607 60.104,131.64 140.269,146.672 -30.279,16.812 -66.894,26.681 -106.305,26.681 z m 241.243,-80.143 -6.502,4.346 v 47.174 l -49.986,-27.813 -0.12,0.022 -5.072,0.949 c -11.23,2.104 -22.666,3.168 -34.021,3.168 -1.225,0 -2.425,-0.052 -3.637,-0.074 -81.162,-1.572 -146.593,-55.214 -146.593,-120.982 0,-51.133 39.568,-94.93 95.313,-112.642 14.197,-4.509 29.437,-7.33 45.355,-8.145 3.167,-0.163 6.347,-0.269 9.565,-0.269 82.837,0 150.229,54.307 150.229,121.056 0.001,36.075 -19.879,70.052 -54.531,93.21 z"
   id="path2"
   inkscape:connector-curvature="0" />
</g>
<g
   id="g6">
</g>
<g
   id="g8">
</g>
<g
   id="g10">
</g>
<g
   id="g12">
</g>
<g
   id="g14">
</g>
<g
   id="g16">
</g>
<g
   id="g18">
</g>
<g
   id="g20">
</g>
<g
   id="g22">
</g>
<g
   id="g24">
</g>
<g
   id="g26">
</g>
<g
   id="g28">
</g>
<g
   id="g30">
</g>
<g
   id="g32">
</g>
<g
   id="g34">
</g>
</svg>