<?xml version="1.0" encoding="UTF-8" standalone="no"?>
<svg
   xmlns:osb="http://www.openswatchbook.org/uri/2009/osb"
   xmlns:dc="http://purl.org/dc/elements/1.1/"
   xmlns:cc="http://creativecommons.org/ns#"
   xmlns:rdf="http://www.w3.org/1999/02/22-rdf-syntax-ns#"
   xmlns:svg="http://www.w3.org/2000/svg"
   xmlns="http://www.w3.org/2000/svg"
   xmlns:sodipodi="http://sodipodi.sourceforge.net/DTD/sodipodi-0.dtd"
   xmlns:inkscape="http://www.inkscape.org/namespaces/inkscape"
   id="Layer_1"
   data-name="Layer 1"
   viewBox="0 0 157.53714 157.49939"
   version="1.1"
   sodipodi:docname="chocovitsa-favicon.svg"
   inkscape:version="0.92.3 (2405546, 2018-03-11)"
   width="157.53714"
   height="157.49939"
   inkscape:export-filename="/home/user/chocospace/chocovitsa.com/src/images/favicon.png"
   inkscape:export-xdpi="17.446541"
   inkscape:export-ydpi="17.446541">
  <metadata
     id="metadata3769">
    <rdf:RDF>
      <cc:Work
         rdf:about="">
        <dc:format>image/svg+xml</dc:format>
        <dc:type
           rdf:resource="http://purl.org/dc/dcmitype/StillImage" />
        <dc:title>shokovica_logo_final</dc:title>
      </cc:Work>
    </rdf:RDF>
  </metadata>
  <sodipodi:namedview
     pagecolor="#ffffff"
     bordercolor="#666666"
     borderopacity="1"
     objecttolerance="10"
     gridtolerance="10"
     guidetolerance="10"
     inkscape:pageopacity="0"
     inkscape:pageshadow="2"
     inkscape:window-width="1853"
     inkscape:window-height="1025"
     id="namedview3767"
     showgrid="false"
     inkscape:zoom="1.9990827"
     inkscape:cx="-303.64209"
     inkscape:cy="-374.7215"
     inkscape:window-x="67"
     inkscape:window-y="27"
     inkscape:window-maximized="1"
     inkscape:current-layer="Layer_1"
     fit-margin-top="10"
     fit-margin-left="10"
     fit-margin-right="10"
     fit-margin-bottom="10" />
  <defs
     id="defs3744">
    <linearGradient
       id="linearGradient4584"
       osb:paint="solid">
      <stop
         style="stop-color:#231f20;stop-opacity:1;"
         offset="0"
         id="stop4582" />
    </linearGradient>
    <style
       id="style3742">.cls-1{fill:#231f20;fill-rule:evenodd;}</style>
  </defs>
  <title
     id="title3746">shokovica_logo_final</title>
  <circle
     style="opacity:1;fill:#ec1833;fill-opacity:1;stroke:none;stroke-width:0.47391507;stroke-miterlimit:4;stroke-dasharray:none;stroke-opacity:1"
     id="path824"
     cx="-343.75955"
     cy="524.80786"
     r="145.51917"
     inkscape:export-xdpi="96"
     inkscape:export-ydpi="96" />
  <path
     style="opacity:1;fill:#ffffff;fill-opacity:1;fill-rule:evenodd;stroke:#ffffff;stroke-width:12.34015751;stroke-miterlimit:4;stroke-dasharray:none;stroke-opacity:1"
     d="m 4.2639041,151.62098 c -1.646288,-1.34006 -4.63693895,-5.9257 -3.79999995,-1.27073 -0.78579,2.42925 2.55511095,0.80305 3.79999995,1.27073 z m -8.7,-104.850007 c -0.151623,-3.160689 5.05166905,-3.160604 4.90000005,0 0,10.2 0,20.4 0,30.6 C 11.424782,66.493809 22.233538,55.434618 33.28864,44.670188 c 3.064376,-1.2842 4.67176,2.859553 6.788673,4.287372 9.478863,9.437804 18.957726,18.875609 28.436589,28.313413 0.0747,-10.404264 -0.14821,-20.837608 0.10943,-31.224025 0.75102,-2.878653 5.36677,-1.748088 4.79057,1.14557 0,11.659485 0,23.31897 0,34.978455 9.65904,9.746217 19.52333,19.322177 29.054598,29.174407 1.23652,3.05853 -2.874358,4.63633 -4.307578,6.75264 -8.249,8.25765 -16.49801,16.51531 -24.74702,24.77296 -0.22244,4.10566 0.43691,8.36569 -0.31191,12.3817 -1.84078,2.44397 -5.45076,0.78005 -8.039723,1.2683 -2.522604,0.20909 -5.592229,-0.90244 -7.086832,1.78846 -7.479759,7.38062 -14.780839,14.97738 -22.370159,22.22551 -3.058584,1.22552 -4.634141,-2.87107 -6.749664,-4.30569 -6.58057,-6.56943 -13.16114,-13.13885 -19.7417099,-19.70828 -4.071642,-0.22646 -8.30000695,0.44269 -12.281704,-0.31191 -2.443961,-1.84078 -0.780043,-5.45076 -1.268296,-8.03972 -0.2044,-2.50788 0.897008,-5.55665 -1.788465,-7.03683 -9.0621721,-9.15731 -18.3317071,-18.1427 -27.2661401,-27.40594 -1.236961,-3.05898 2.875328,-4.63538 4.309611,-6.75061 8.248331,-8.248335 16.496663,-16.496666 24.7449941,-24.744997 0,-11.82 0,-23.64 0,-35.46 z M 11.113904,151.62098 c 6.966667,0 13.933333,0 20.9,0 0,-32.98333 0,-65.966673 0,-98.950007 -10.516667,10.516667 -21.033333,21.033333 -31.54999985,31.55 0,18.899997 0,37.800007 0,56.700007 3.54999995,3.56667 7.09999995,7.13333 10.64999985,10.7 z m 57.399998,-3.85 c -1.33913,1.65566 -5.980607,4.67921 -1.32073,3.85 2.486,0.7876 0.85753,-2.55401 1.32073,-3.85 z m 28.35,-35.25 c -7.81667,-7.81667 -15.63333,-15.63334 -23.45,-23.450007 0,15.633337 0,31.266677 0,46.900007 7.81667,-7.81667 15.63333,-15.63333 23.45,-23.45 z m -43.999998,44 c -12.25,0 -24.5,0 -36.75,0 6.133333,6.13333 12.266667,12.26667 18.4,18.4 6.116667,-6.13333 12.233333,-12.26667 18.35,-18.4 z m -57.2999999,-20.5 c 0,-15.63333 0,-31.26667 0,-46.900007 -7.8166671,7.816667 -15.6333341,15.633337 -23.4500011,23.450007 7.816667,7.81667 15.633334,15.63333 23.4500011,23.45 z m 41.3499999,15.6 c 6.949999,0 13.899999,0 20.849998,0 3.583333,-3.58333 7.166667,-7.16667 10.75,-10.75 0,-18.9 0,-37.80001 0,-56.700007 -10.533333,-10.533333 -21.066665,-21.066667 -31.599998,-31.6 0,33.016667 0,66.033337 0,99.050007 z"
     id="path3748"
     inkscape:connector-curvature="0" />
  <path
     style="opacity:1;fill:#ffffff;fill-opacity:1;stroke:#ffffff;stroke-width:4;stroke-linecap:round;stroke-linejoin:round;stroke-miterlimit:4;stroke-dasharray:none;stroke-opacity:1;paint-order:fill markers stroke"
     d="m -471.53808,532.55133 127.27922,127.27922 127.27922,-127.27922 -127.27922,-127.27922 z m 35.35534,0 91.92388,-91.92388 91.92388,91.92388 -91.92388,91.92388 z"
     id="rect853"
     inkscape:connector-curvature="0"
     inkscape:export-xdpi="96"
     inkscape:export-ydpi="96" />
  <path
     style="opacity:1;fill:#ffffff;fill-opacity:1;stroke:#ffffff;stroke-width:4;stroke-linecap:round;stroke-linejoin:round;stroke-miterlimit:4;stroke-dasharray:none;stroke-opacity:1;paint-order:fill markers stroke"
     d="m -413.25886,405.6261 v 212.48263 h 138 V 405.6261 h -25 v 187.48263 h -30.4629 V 405.27219 l -24.76367,0.70743 v 187.12911 h -32.77343 V 405.27239 Z"
     id="path904"
     inkscape:connector-curvature="0"
     sodipodi:nodetypes="ccccccccccccc"
     inkscape:export-xdpi="96"
     inkscape:export-ydpi="96" />
</svg>
