<?xml version="1.0" encoding="UTF-8" standalone="no"?>
<svg
   xmlns:osb="http://www.openswatchbook.org/uri/2009/osb"
   xmlns:dc="http://purl.org/dc/elements/1.1/"
   xmlns:cc="http://creativecommons.org/ns#"
   xmlns:rdf="http://www.w3.org/1999/02/22-rdf-syntax-ns#"
   xmlns:svg="http://www.w3.org/2000/svg"
   xmlns="http://www.w3.org/2000/svg"
   xmlns:sodipodi="http://sodipodi.sourceforge.net/DTD/sodipodi-0.dtd"
   xmlns:inkscape="http://www.inkscape.org/namespaces/inkscape"
   id="Layer_1"
   data-name="Layer 1"
   viewBox="0 0 157.53714 157.49939"
   version="1.1"
   sodipodi:docname="chocovitsa-sign.svg"
   inkscape:version="0.92.3 (2405546, 2018-03-11)"
   width="157.53714"
   height="157.49939">
  <metadata
     id="metadata3769">
    <rdf:RDF>
      <cc:Work
         rdf:about="">
        <dc:format>image/svg+xml</dc:format>
        <dc:type
           rdf:resource="http://purl.org/dc/dcmitype/StillImage" />
        <dc:title>shokovica_logo_final</dc:title>
      </cc:Work>
    </rdf:RDF>
  </metadata>
  <sodipodi:namedview
     pagecolor="#ffffff"
     bordercolor="#666666"
     borderopacity="1"
     objecttolerance="10"
     gridtolerance="10"
     guidetolerance="10"
     inkscape:pageopacity="0"
     inkscape:pageshadow="2"
     inkscape:window-width="1920"
     inkscape:window-height="1017"
     id="namedview3767"
     showgrid="false"
     inkscape:zoom="0.99954137"
     inkscape:cx="72.723343"
     inkscape:cy="20.354402"
     inkscape:window-x="-8"
     inkscape:window-y="-8"
     inkscape:window-maximized="1"
     inkscape:current-layer="Layer_1"
     fit-margin-top="10"
     fit-margin-left="10"
     fit-margin-right="10"
     fit-margin-bottom="10" />
  <defs
     id="defs3744">
    <linearGradient
       id="linearGradient4584"
       osb:paint="solid">
      <stop
         style="stop-color:#231f20;stop-opacity:1;"
         offset="0"
         id="stop4582" />
    </linearGradient>
    <style
       id="style3742">.cls-1{fill:#231f20;fill-rule:evenodd;}</style>
  </defs>
  <title
     id="title3746">shokovica_logo_final</title>
  <path
     class="cls-1"
     d="m 48.543572,117.8 -3.8,-3.8 v 3.8 z m -8.7,-104.850001 a 2.45,2.45 0 0 1 4.9,0 v 30.6 l 32.27,-32.27 a 2.35,2.35 0 0 1 1.73,-0.73 v 0 a 2.35,2.35 0 0 1 1.73,0.72 l 32.319998,32.18 v -30.5 a 2.45,2.45 0 0 1 4.9,0 v 35.4 l 28.62,28.6 a 2.41,2.41 0 0 1 0,3.45 l -28.62,28.650001 v 11.2 a 2.47,2.47 0 0 1 -2.45,2.45 h -11.2 l -23.579998,23.58 a 2.42,2.42 0 0 1 -3.45,0 l -23.62,-23.58 h -11.1 a 2.47,2.47 0 0 1 -2.45,-2.45 V 109.1 l -28.62,-28.620001 a 2.41,2.41 0 0 1 0,-3.45 l 28.62,-28.62 z M 55.393572,117.8 h 20.9 V 18.849999 l -31.55,31.55 V 107.1 Z m 57.399998,-3.85 -3.85,3.85 h 3.85 z m 28.35,-35.250001 -23.45,-23.45 V 102.15 Z M 97.143572,122.7 h -36.75 l 18.4,18.4 z m -57.3,-20.5 V 55.299999 l -23.45,23.45 z m 41.35,15.6 h 20.849998 l 10.75,-10.75 V 50.349999 l -31.599998,-31.6 z"
     id="path3748"
     style="opacity:1;fill:#ffffff;fill-opacity:1;fill-rule:evenodd;stroke:#808080;stroke-opacity:1"
     inkscape:connector-curvature="0" />
</svg>
