<?xml version="1.0" encoding="UTF-8" standalone="no"?>
<!-- Generator: Adobe Illustrator 18.0.0, SVG Export Plug-In . SVG Version: 6.00 Build 0)  -->

<svg
   xmlns:dc="http://purl.org/dc/elements/1.1/"
   xmlns:cc="http://creativecommons.org/ns#"
   xmlns:rdf="http://www.w3.org/1999/02/22-rdf-syntax-ns#"
   xmlns:svg="http://www.w3.org/2000/svg"
   xmlns="http://www.w3.org/2000/svg"
   xmlns:sodipodi="http://sodipodi.sourceforge.net/DTD/sodipodi-0.dtd"
   xmlns:inkscape="http://www.inkscape.org/namespaces/inkscape"
   version="1.1"
   id="Capa_1"
   x="0px"
   y="0px"
   viewBox="0 0 305.033 305.033"
   style="enable-background:new 0 0 305.033 305.033;"
   xml:space="preserve"
   sodipodi:docname="choco-more.svg"
   inkscape:version="0.92.3 (2405546, 2018-03-11)"><metadata
   id="metadata39"><rdf:RDF><cc:Work
       rdf:about=""><dc:format>image/svg+xml</dc:format><dc:type
         rdf:resource="http://purl.org/dc/dcmitype/StillImage" /><dc:title></dc:title></cc:Work></rdf:RDF></metadata><defs
   id="defs37" /><sodipodi:namedview
   pagecolor="#ffffff"
   bordercolor="#666666"
   borderopacity="1"
   objecttolerance="10"
   gridtolerance="10"
   guidetolerance="10"
   inkscape:pageopacity="0"
   inkscape:pageshadow="2"
   inkscape:window-width="1853"
   inkscape:window-height="1025"
   id="namedview35"
   showgrid="false"
   inkscape:zoom="1.0941584"
   inkscape:cx="-101.19155"
   inkscape:cy="27.911235"
   inkscape:window-x="67"
   inkscape:window-y="27"
   inkscape:window-maximized="1"
   inkscape:current-layer="Capa_1"
   inkscape:measure-start="116.488,29.8894"
   inkscape:measure-end="116.326,40.391" />
<path
   id="path4604"
   style="fill:#ffffff;stroke:#999999;stroke-opacity:1"
   d="m 179.96794,28.059807 v 51.812542 l -59.81487,7.08e-4 7.1e-4,-51.811836 z m -71.72003,-6.000978 v 0 l -0.003,63.242901 c -7.1e-4,1.5917 0.63144,3.11763 1.75645,4.24264 1.12501,1.12501 2.65165,1.75787 4.24335,1.75716 47.4996,-0.001 26.99333,-0.002 71.62629,-0.001 3.3135,0 5.9998,-2.6863 5.99909,-5.99909 5e-5,-40.18382 0.003,-25.369554 0.003,-63.243304 m 0,0 v 0 c 7.1e-4,-1.591697 -0.63144,-3.117634 -1.75645,-4.242641 -1.12501,-1.125007 -2.65165,-1.757866 -4.24335,-1.757159 -47.4996,0.0014 -26.99333,0.0016 -71.62629,0.0014 -3.3135,0 -5.9998,2.686298 -5.99909,5.999093"
   inkscape:connector-curvature="0" />
<g
   id="g4"
   style="fill:#ffffff;stroke:#333333">
</g>
<g
   id="g6"
   style="fill:#ffffff;stroke:#333333">
</g>
<g
   id="g8"
   style="fill:#ffffff;stroke:#333333">
</g>
<g
   id="g10"
   style="fill:#ffffff;stroke:#333333">
</g>
<g
   id="g12"
   style="fill:#ffffff;stroke:#333333">
</g>
<g
   id="g14"
   style="fill:#ffffff;stroke:#333333">
</g>
<g
   id="g16"
   style="fill:#ffffff;stroke:#333333">
</g>
<g
   id="g18"
   style="fill:#ffffff;stroke:#333333">
</g>
<g
   id="g20"
   style="fill:#ffffff;stroke:#333333">
</g>
<g
   id="g22"
   style="fill:#ffffff;stroke:#333333">
</g>
<g
   id="g24"
   style="fill:#ffffff;stroke:#333333">
</g>
<g
   id="g26"
   style="fill:#ffffff;stroke:#333333">
</g>
<g
   id="g28"
   style="fill:#ffffff;stroke:#333333">
</g>
<g
   id="g30"
   style="fill:#ffffff;stroke:#333333">
</g>
<g
   id="g32"
   style="fill:#ffffff;stroke:#333333">
</g>
<path
   inkscape:connector-curvature="0"
   id="path4604-6"
   style="fill:#ffffff;stroke:#999999;stroke-opacity:1"
   d="m 179.96794,129.303 v 51.81255 l -59.81487,7e-4 7.1e-4,-51.81183 z m -71.72003,-6.00097 v 0 l -0.003,63.2429 c -7.1e-4,1.5917 0.63144,3.11763 1.75645,4.24264 1.12501,1.12501 2.65165,1.75787 4.24335,1.75716 47.4996,-10e-4 26.99333,-0.002 71.62629,-10e-4 3.3135,0 5.9998,-2.6863 5.99909,-5.99909 5e-5,-40.18382 0.003,-25.36956 0.003,-63.24331 m 0,0 v 0 c 7.1e-4,-1.59169 -0.63144,-3.11763 -1.75645,-4.24264 -1.12501,-1.125 -2.65165,-1.75786 -4.24335,-1.75716 -47.4996,0.001 -26.99333,0.002 -71.62629,0.001 -3.3135,0 -5.9998,2.6863 -5.99909,5.9991" /><path
   inkscape:connector-curvature="0"
   id="path4604-7"
   style="fill:#ffffff;stroke:#999999;stroke-opacity:1"
   d="m 179.96794,230.54622 v 51.81254 l -59.81487,7.1e-4 7.1e-4,-51.81184 z m -71.72003,-6.00098 v 0 l -0.003,63.2429 c -7.1e-4,1.5917 0.63144,3.11763 1.75645,4.24264 1.12501,1.12501 2.65165,1.75787 4.24335,1.75716 47.4996,-10e-4 26.99333,-0.002 71.62629,-10e-4 3.3135,0 5.9998,-2.6863 5.99909,-5.99909 5e-5,-40.18382 0.003,-25.36955 0.003,-63.2433 m 0,0 v 0 c 7.1e-4,-1.5917 -0.63144,-3.11764 -1.75645,-4.24265 -1.12501,-1.125 -2.65165,-1.75786 -4.24335,-1.75716 -47.4996,0.001 -26.99333,0.002 -71.62629,0.001 -3.3135,0 -5.9998,2.6863 -5.99909,5.9991" /></svg>