<?xml version="1.0" encoding="UTF-8" standalone="no"?>
<!-- Generator: Adobe Illustrator 19.0.0, SVG Export Plug-In . SVG Version: 6.00 Build 0)  -->

<svg
   xmlns:dc="http://purl.org/dc/elements/1.1/"
   xmlns:cc="http://creativecommons.org/ns#"
   xmlns:rdf="http://www.w3.org/1999/02/22-rdf-syntax-ns#"
   xmlns:svg="http://www.w3.org/2000/svg"
   xmlns="http://www.w3.org/2000/svg"
   xmlns:sodipodi="http://sodipodi.sourceforge.net/DTD/sodipodi-0.dtd"
   xmlns:inkscape="http://www.inkscape.org/namespaces/inkscape"
   version="1.1"
   id="Layer_1"
   x="0px"
   y="0px"
   viewBox="0 0 196 196"
   style="enable-background:new 0 0 196 196;"
   xml:space="preserve"
   sodipodi:docname="compass-svgrepo-com.svg"
   inkscape:version="0.92.3 (2405546, 2018-03-11)"><metadata
   id="metadata47"><rdf:RDF><cc:Work
       rdf:about=""><dc:format>image/svg+xml</dc:format><dc:type
         rdf:resource="http://purl.org/dc/dcmitype/StillImage" /></cc:Work></rdf:RDF></metadata><defs
   id="defs45" /><sodipodi:namedview
   pagecolor="#ffffff"
   bordercolor="#666666"
   borderopacity="1"
   objecttolerance="10"
   gridtolerance="10"
   guidetolerance="10"
   inkscape:pageopacity="0"
   inkscape:pageshadow="2"
   inkscape:window-width="1920"
   inkscape:window-height="1017"
   id="namedview43"
   showgrid="false"
   inkscape:zoom="1.2040816"
   inkscape:cx="98"
   inkscape:cy="98"
   inkscape:window-x="-8"
   inkscape:window-y="-8"
   inkscape:window-maximized="1"
   inkscape:current-layer="Layer_1" />
<g
   id="g10"
   style="fill:#ffffff;stroke:#999999;stroke-opacity:1"
   transform="matrix(-1,0,0,1,196,0)">
	<g
   id="g8"
   style="fill:#ffffff;stroke:#999999;stroke-opacity:1">
		<g
   id="g6"
   style="fill:#ffffff;stroke:#999999;stroke-opacity:1">
			<path
   d="M 98,0 C 43.962,0 0,43.962 0,98 c 0,54.038 43.962,98 98,98 54.038,0 98,-43.962 98,-98 C 196,43.962 152.038,0 98,0 Z m 0,189 C 47.823,189 7,148.177 7,98 7,47.823 47.823,7 98,7 c 50.177,0 91,40.823 91,91 0,50.177 -40.823,91 -91,91 z"
   id="path2"
   inkscape:connector-curvature="0"
   style="fill:#ffffff;stroke:#999999;stroke-opacity:1" />
			<path
   d="M 145.394,45.948 33.606,98.528 c -1.03,0.485 -1.694,1.509 -1.89,2.632 -0.196,1.123 0.234,2.34 1.041,3.144 0.656,0.656 1.547,1.025 2.474,1.025 H 90.67 v 55.439 c 0,0.928 0.504,1.953 1.16,2.61 0.661,0.663 1.555,1.025 2.475,1.025 0.2,0 0.401,-0.017 0.602,-0.053 1.123,-0.195 2.08,-0.926 2.565,-1.957 l 52.579,-111.79 c 0.629,-1.336 0.352,-2.922 -0.692,-3.965 -1.045,-1.039 -2.626,-1.314 -3.965,-0.69 z M 97.67,145.527 V 101.83 c 0,-1.933 -1.567,-3.5 -3.5,-3.5 H 50.473 l 89.108,-41.913 z"
   id="path4"
   inkscape:connector-curvature="0"
   style="fill:#ffffff;stroke:#999999;stroke-opacity:1" />
		</g>
	</g>
</g>
<g
   id="g12">
</g>
<g
   id="g14">
</g>
<g
   id="g16">
</g>
<g
   id="g18">
</g>
<g
   id="g20">
</g>
<g
   id="g22">
</g>
<g
   id="g24">
</g>
<g
   id="g26">
</g>
<g
   id="g28">
</g>
<g
   id="g30">
</g>
<g
   id="g32">
</g>
<g
   id="g34">
</g>
<g
   id="g36">
</g>
<g
   id="g38">
</g>
<g
   id="g40">
</g>
</svg>