<?xml version="1.0" encoding="UTF-8" standalone="no"?>
<svg
   xmlns:dc="http://purl.org/dc/elements/1.1/"
   xmlns:cc="http://creativecommons.org/ns#"
   xmlns:rdf="http://www.w3.org/1999/02/22-rdf-syntax-ns#"
   xmlns:svg="http://www.w3.org/2000/svg"
   xmlns="http://www.w3.org/2000/svg"
   xmlns:sodipodi="http://sodipodi.sourceforge.net/DTD/sodipodi-0.dtd"
   xmlns:inkscape="http://www.inkscape.org/namespaces/inkscape"
   version="1.1"
   viewBox="0 0 470 470"
   enable-background="new 0 0 470 470"
   width="512px"
   height="512px"
   id="svg4724"
   sodipodi:docname="translation.svg"
   inkscape:version="0.92.3 (2405546, 2018-03-11)">
  <metadata
     id="metadata4730">
    <rdf:RDF>
      <cc:Work
         rdf:about="">
        <dc:format>image/svg+xml</dc:format>
        <dc:type
           rdf:resource="http://purl.org/dc/dcmitype/StillImage" />
      </cc:Work>
    </rdf:RDF>
  </metadata>
  <defs
     id="defs4728" />
  <sodipodi:namedview
     pagecolor="#ffffff"
     bordercolor="#666666"
     borderopacity="1"
     objecttolerance="10"
     gridtolerance="10"
     guidetolerance="10"
     inkscape:pageopacity="0"
     inkscape:pageshadow="2"
     inkscape:window-width="1853"
     inkscape:window-height="1025"
     id="namedview4726"
     showgrid="false"
     inkscape:zoom="0.4609375"
     inkscape:cx="-128"
     inkscape:cy="396.43973"
     inkscape:window-x="67"
     inkscape:window-y="27"
     inkscape:window-maximized="1"
     inkscape:current-layer="svg4724" />
  <g
     id="g4722">
    <path
       d="m 412.75,228.25 h -69.3279 c -0.5499,-33.6942 -5.2038,-66.2544 -13.2939,-95.1246 h 45.4662 c 3.7287,0 6.75,-3.0213 6.75,-6.75 0,-3.7287 -3.0213,-6.75 -6.75,-6.75 H 325.9936 C 318.7774,97.8769 309.5092,78.6565 298.4959,63.235 c -2.1672,-3.0339 -6.3837,-3.7377 -9.4158,-1.5705 -3.0339,2.1663 -3.7368,6.3828 -1.5705,9.4158 9.5562,13.3812 17.7192,29.8791 24.2685,48.5451 H 241.75 V 57.25 c 0,-3.7287 -3.0213,-6.75 -6.75,-6.75 -3.7287,0 -6.75,3.0213 -6.75,6.75 v 62.3754 h -70.029 c 6.5493,-18.666 14.7123,-35.1639 24.2685,-48.5451 2.1663,-3.033 1.4634,-7.2495 -1.5705,-9.4158 -3.0348,-2.1663 -7.2495,-1.4625 -9.4158,1.5705 -11.0133,15.4215 -20.2815,34.6428 -27.4977,56.3904 H 94.4047 c -3.7287,0 -6.75,3.0213 -6.75,6.75 0,3.7287 3.0213,6.75 6.75,6.75 h 45.4662 c -8.0892,28.8702 -12.7431,61.4304 -13.2939,95.1246 H 57.25 c -3.7287,0 -6.75,3.0213 -6.75,6.75 0,3.7287 3.0213,6.75 6.75,6.75 h 69.3279 c 0.5499,33.6942 5.2038,66.2544 13.2939,95.1246 H 94.4047 c -3.7287,0 -6.75,3.0213 -6.75,6.75 0,3.7287 3.0213,6.75 6.75,6.75 h 49.6008 c 7.2171,21.7521 16.488,40.9761 27.504,56.3994 1.3176,1.8441 3.393,2.8278 5.499,2.8278 1.3572,0 2.7279,-0.4086 3.9177,-1.2573 3.033,-2.1672 3.7359,-6.3828 1.5696,-9.4167 -9.5589,-13.3821 -17.7237,-29.8836 -24.2748,-48.5523 H 228.25 V 412.75 c 0,3.7287 3.0213,6.75 6.75,6.75 3.7287,0 6.75,-3.0213 6.75,-6.75 v -62.3754 h 70.029 c -6.5502,18.6696 -14.7159,35.1702 -24.2748,48.5523 -2.1663,3.0339 -1.4634,7.2495 1.5696,9.4167 1.1889,0.8487 2.5596,1.2573 3.9177,1.2573 2.1069,0 4.1814,-0.9837 5.499,-2.8278 11.016,-15.4233 20.286,-34.6473 27.504,-56.3994 h 49.6008 c 3.7287,0 6.75,-3.0213 6.75,-6.75 0,-3.7287 -3.0213,-6.75 -6.75,-6.75 h -45.4671 c 8.0901,-28.8702 12.744,-61.4304 13.2939,-95.1246 H 412.75 c 3.7287,0 6.75,-3.0213 6.75,-6.75 0,-3.7287 -3.0213,-6.7491 -6.75,-6.7491 z m -96.624,-95.1246 c 8.3817,28.5147 13.2255,61.1622 13.7934,95.1246 H 241.75 v -95.1246 z m -162.252,0 H 228.25 V 228.25 h -88.1694 c 0.5688,-33.9633 5.4117,-66.6099 13.7934,-95.1246 z m 0,203.7492 C 145.4923,308.3599 140.6485,275.7124 140.0806,241.75 H 228.25 v 95.1246 z m 162.252,0 H 241.75 V 241.75 h 88.1694 c -0.5688,33.9633 -5.4117,66.6108 -13.7934,95.1246 z"
       id="path4718"
       inkscape:connector-curvature="0"
       style="fill:#ffffff;stroke-width:0.89999998" />
    <path
       d="M 384.553,85.447 C 344.6056,45.4996 291.4939,23.5 235,23.5 178.5061,23.5 125.3944,45.4996 85.447,85.447 45.4996,125.3944 23.5,178.5061 23.5,235.0009 c 0,41.6439 12.0519,81.8091 34.8876,116.3844 l -25.8462,77.5332 c -0.8082,2.4255 -0.1773,5.1003 1.6308,6.9084 1.8081,1.8072 4.4811,2.4372 6.9084,1.6308 l 77.535,-25.8444 C 153.1918,434.4481 193.3561,446.5 235,446.5 c 56.4939,0 109.6056,-21.9996 149.553,-61.947 C 424.5004,344.6056 446.5,291.4939 446.5,235.0009 446.5,178.5061 424.5004,125.3944 384.553,85.447 Z M 235,433 c -40.0419,0 -78.6195,-11.8998 -111.5649,-34.4115 -1.1358,-0.7758 -2.4651,-1.1772 -3.8079,-1.1772 -0.7173,0 -1.4382,0.1143 -2.1348,0.3465 L 49.618,420.3811 72.244,352.5085 c 0.6669,-2.0025 0.3591,-4.2012 -0.8307,-5.9436 C 48.8998,313.6213 37,275.0428 37,235.0009 37,125.8228 125.8219,37 235,37 344.1781,37 433,125.8228 433,235.0009 433,344.1781 344.1781,433 235,433 Z"
       id="path4720"
       inkscape:connector-curvature="0"
       style="fill:#ffffff;stroke-width:0.89999998" />
  </g>
</svg>
